<svg viewBox="0 0 640 400" data-background-color="#ffffff" preserveAspectRatio="xMidYMid meet" height="400" width="640"
     xmlns="http://www.w3.org/2000/svg" xmlns:xlink="http://www.w3.org/1999/xlink">
    <rect width="640" height="400" x="0" y="0" opacity="1" fill="#ffffff" data-fill-palette-color="background"
          id="background"></rect>
    <g id="tight-bounds" transform="matrix(1,0,0,1,122.24000000000001,145.4754916350599)">
        <svg viewBox="0 0 395.52 109.04901672988018" height="109.04901672988018" width="395.52">
            <g>
                <svg viewBox="0 0 395.52 109.04901672988018" height="109.04901672988018" width="395.52">
                    <g>
                        <svg viewBox="0 0 395.52 109.04901672988018" height="109.04901672988018" width="395.52">
                            <g id="textblocktransform">
                                <svg viewBox="0 0 395.52 109.04901672988018" height="109.04901672988018" width="395.52"
                                     id="textblock">
                                    <g>
                                        <svg viewBox="0 0 395.52 109.04901672988018" height="109.04901672988018"
                                             width="395.52">
                                            <path d="M394.594 23.389C392.735 12.07 387.435 8.923 387.435 8.923 371.165-2.736 350.86-0.223 332.619 1.452 300.414 1.52 268.339 4.01 236.208 5.346 168.767 5.55 100.749 2.199 33.643 10.462 27.339 12.998-6.54 10.96 1.121 24.838 3.129 30.611 10.456 37.017 10.232 42.315 11.236 43.243 12.631 41.115 13.226 42.451 15.309 46.05 18.711 44.352 21.501 46.48 17.614 52.162 20.403 56.894 23.062 61.852 18.377 63.142 12.371 62.531 9.675 66.81 9.396 69.911 7.89 69.322 6.235 69.187 5.026 69.096 2.59 69.436 2.999 70.409 4.394 73.737-1.594 75.661 2.162 78.921-0.422 82.453 3.948 85.509 3.353 89.335 3.278 90.105 3.687 90.761 4.338 90.942 7.22 91.916 3.018 93.817 3.464 95.877 33.029 109.959 65.104 100.224 95.394 106.699 103.259 102.171 97.346 108.306 100.489 107.355 102.943 106.246 104.728 110.841 107.499 108.238 107.927 107.491 107.276 105.725 108.8 106.065 109.6 106.246 110.307 106.201 110.418 105.159 110.586 103.597 109.117 104.571 108.726 103.756 112.947 99.635 111.906 109.438 115.866 109.03 115.68 107.831 114.528 106.11 116.889 106.336 119.232 104.616 119.306 103.19 121.389 107.061 121.463 107.898 121.835 108.487 122.43 108.895 128.938 104.684 135.409 110.389 142.233 108.487 146.417 106.404 150.433 109.619 154.672 108.827 156.16 108.193 157.666 107.061 159.098 108.962 176.632 109.37 195.319 107.672 211.943 109.03 256.364 106.495 303.835 110.072 350.674 106.721 361.719 105.431 373.192 103.597 383.958 102.126 383.958 102.126 392.679 98.096 392.679 79.985S394.538 64.138 394.817 49.718C395.096 35.297 396.398 34.708 394.538 23.389Z"
                                                  opacity="1" fill="#0b545d" data-fill-palette-color="tertiary"></path>
                                            <g transform="matrix(1,0,0,1,55.76832,26.230666666666668)">
                                                <svg width="283.98335999999995"
                                                     viewBox="0.24000000953674316 -34.18000030517578 172.5 34.380001068115234"
                                                     height="56.587683396546836" data-palette-color="#f2bc02">
                                                    <path d="M5.81-34.18L18.21-34.18Q19.19-34.18 20.18-34.11 21.17-34.03 21.97-33.69 22.78-33.35 23.28-32.65 23.78-31.96 23.78-30.71L23.78-30.71Q23.78-29.49 23.28-28.8 22.78-28.1 21.97-27.76 21.17-27.42 20.18-27.33 19.19-27.25 18.21-27.25L18.21-27.25 15.72-27.25 15.72-5.57Q15.72-4.52 15.66-3.52 15.6-2.51 15.26-1.73 14.92-0.95 14.16-0.48 13.4 0 12.01 0L12.01 0Q10.62 0 9.86-0.48 9.11-0.95 8.76-1.73 8.42-2.51 8.36-3.52 8.3-4.52 8.3-5.57L8.3-5.57 8.3-27.25 5.81-27.25Q4.83-27.25 3.85-27.33 2.86-27.42 2.05-27.76 1.25-28.1 0.74-28.8 0.24-29.49 0.24-30.71L0.24-30.71Q0.24-31.96 0.74-32.65 1.25-33.35 2.05-33.69 2.86-34.03 3.85-34.11 4.83-34.18 5.81-34.18L5.81-34.18ZM38.57-31.15L46.34-10.11 46.92-10.11 46.92-30.37Q46.92-31.15 47.02-31.85 47.12-32.54 47.45-33.06 47.78-33.57 48.42-33.87 49.07-34.18 50.19-34.18L50.19-34.18Q51.44-34.18 52.16-33.87 52.88-33.57 53.24-33.06 53.61-32.54 53.71-31.85 53.81-31.15 53.81-30.37L53.81-30.37 53.81-5.62Q53.81-4.54 53.75-3.54 53.68-2.54 53.35-1.75 53.02-0.95 52.28-0.48 51.54 0 50.19 0L50.19 0 46.97 0Q45.82 0 45.05-0.45 44.28-0.9 43.77-1.55 43.26-2.2 42.95-2.91 42.65-3.61 42.48-4.1L42.48-4.1 35.1-24.07 34.52-24.07 34.52-3.81Q34.52-3.03 34.42-2.33 34.32-1.64 33.99-1.12 33.66-0.61 33.02-0.31 32.37 0 31.25 0L31.25 0Q29.98 0 29.25-0.31 28.51-0.61 28.15-1.12 27.78-1.64 27.68-2.33 27.59-3.03 27.59-3.81L27.59-3.81 27.59-28.56Q27.59-29.61 27.65-30.63 27.71-31.64 28.05-32.43 28.39-33.23 29.14-33.7 29.88-34.18 31.25-34.18L31.25-34.18 34.47-34.18Q35.69-34.18 36.46-33.7 37.23-33.23 37.72-32.67L37.72-32.67Q38.25-32.01 38.57-31.15L38.57-31.15ZM62.98-34.18L75.39-34.18Q76.36-34.18 77.35-34.11 78.34-34.03 79.15-33.69 79.95-33.35 80.45-32.65 80.95-31.96 80.95-30.71L80.95-30.71Q80.95-29.49 80.45-28.8 79.95-28.1 79.15-27.76 78.34-27.42 77.35-27.33 76.36-27.25 75.39-27.25L75.39-27.25 72.9-27.25 72.9-5.57Q72.9-4.52 72.83-3.52 72.77-2.51 72.43-1.73 72.09-0.95 71.33-0.48 70.58 0 69.18 0L69.18 0Q67.79 0 67.04-0.48 66.28-0.95 65.94-1.73 65.6-2.51 65.53-3.52 65.47-4.52 65.47-5.57L65.47-5.57 65.47-27.25 62.98-27.25Q62.01-27.25 61.02-27.33 60.03-27.42 59.22-27.76 58.42-28.1 57.92-28.8 57.42-29.49 57.42-30.71L57.42-30.71Q57.42-31.96 57.92-32.65 58.42-33.35 59.22-33.69 60.03-34.03 61.02-34.11 62.01-34.18 62.98-34.18L62.98-34.18ZM103.36-28.61L103.36-5.52Q103.36-4.49 103.29-3.5 103.22-2.51 102.85-1.73 102.48-0.95 101.75-0.48 101.02 0 99.7 0L99.7 0Q98.36 0 97.6-0.45 96.84-0.9 96.48-1.55 96.11-2.2 96.03-2.91 95.94-3.61 95.94-4.1L95.94-4.1Q95.72-3.39 95.32-2.66 94.91-1.93 94.28-1.34 93.64-0.76 92.75-0.38 91.86 0 90.67 0L90.67 0Q89.32 0 87.98-0.44 86.64-0.88 85.56-1.9 84.49-2.93 83.82-4.58 83.15-6.23 83.15-8.64L83.15-8.64 83.15-15.72Q83.15-18.16 83.82-19.81 84.49-21.46 85.56-22.47 86.64-23.49 87.98-23.93 89.32-24.37 90.67-24.37L90.67-24.37Q91.86-24.37 92.75-24 93.64-23.63 94.28-23.05 94.91-22.46 95.32-21.73 95.72-21 95.94-20.26L95.94-20.26 95.94-28.61Q95.94-29.66 96.05-30.68 96.16-31.69 96.54-32.46 96.92-33.23 97.66-33.7 98.41-34.18 99.7-34.18L99.7-34.18Q100.92-34.18 101.65-33.7 102.39-33.23 102.76-32.46 103.14-31.69 103.25-30.68 103.36-29.66 103.36-28.61L103.36-28.61ZM90.67-15.19L90.67-9.28Q90.67-8.62 90.72-7.98 90.76-7.35 90.98-6.84 91.2-6.32 91.63-6.02 92.06-5.71 92.81-5.71L92.81-5.71Q93.77-5.71 94.37-6.14 94.96-6.57 95.31-7.46 95.65-8.35 95.78-9.7 95.92-11.06 95.94-12.94L95.94-12.94Q95.94-13.7 95.81-14.69 95.67-15.67 95.33-16.55 94.99-17.43 94.38-18.04 93.77-18.65 92.81-18.65L92.81-18.65Q92.06-18.65 91.63-18.35 91.2-18.04 90.98-17.55 90.76-17.07 90.72-16.44 90.67-15.82 90.67-15.19L90.67-15.19ZM128.9-15.43L128.9-13.92Q128.9-13.53 128.85-13 128.8-12.48 128.47-12 128.14-11.52 127.43-11.18 126.72-10.84 125.43-10.84L125.43-10.84 115.71-10.84 115.71-8.5Q115.71-7.91 115.86-7.28 116.01-6.64 116.36-6.1 116.71-5.57 117.3-5.22 117.89-4.88 118.74-4.88L118.74-4.88Q119.72-4.88 120.24-5.11 120.77-5.35 121.07-5.69 121.38-6.03 121.62-6.42 121.87-6.81 122.27-7.15 122.67-7.5 123.39-7.73 124.11-7.96 125.38-7.96L125.38-7.96Q125.99-7.96 126.56-7.86 127.14-7.76 127.58-7.5 128.02-7.23 128.29-6.75 128.55-6.27 128.55-5.52L128.55-5.52Q128.55-3.93 127.55-2.87 126.55-1.81 125.04-1.17 123.53-0.54 121.76-0.27 119.99 0 118.45 0L118.45 0Q116.42-0.02 114.59-0.51 112.76-1 111.35-2.08 109.95-3.15 109.12-4.88 108.29-6.62 108.29-9.13L108.29-9.13 108.29-14.84Q108.29-17.16 108.84-18.77 109.39-20.39 110.27-21.46 111.15-22.53 112.25-23.13 113.34-23.73 114.47-24.02 115.59-24.32 116.6-24.39 117.62-24.46 118.35-24.46L118.35-24.46Q120.82-24.46 122.56-24.02 124.31-23.58 125.48-22.88 126.65-22.17 127.33-21.24 128.02-20.31 128.36-19.32 128.7-18.33 128.8-17.32 128.9-16.31 128.9-15.43L128.9-15.43ZM115.71-16.21L115.71-14.5 121.82-14.5Q121.82-15.65 121.76-16.54 121.69-17.43 121.39-18.04 121.08-18.65 120.44-18.97 119.79-19.29 118.59-19.29L118.59-19.29Q117.59-19.29 117.02-18.97 116.45-18.65 116.15-18.18 115.86-17.7 115.79-17.16 115.71-16.63 115.71-16.21L115.71-16.21ZM150.96-18.26L145.54-3.81Q145.01-2.39 144.54-1.62 144.08-0.85 143.64-0.49 143.2-0.12 142.76-0.06 142.32 0 141.83 0L141.83 0Q141.3 0 140.83-0.06 140.37-0.12 139.9-0.48 139.44-0.83 138.95-1.6 138.46-2.37 137.93-3.81L137.93-3.81 132.41-18.26Q132.19-18.85 132.01-19.52 131.82-20.19 131.82-20.85L131.82-20.85Q131.82-21.56 132.01-22.2 132.19-22.85 132.6-23.34 133.02-23.83 133.68-24.12 134.34-24.41 135.29-24.41L135.29-24.41Q135.97-24.41 136.55-24.12 137.12-23.83 137.57-23.34 138.02-22.85 138.37-22.22 138.71-21.58 138.9-20.9L138.9-20.9 141.64-12.01 142.03-12.01 144.57-20.9Q144.74-21.51 145.06-22.14 145.37-22.78 145.82-23.28 146.28-23.78 146.9-24.1 147.52-24.41 148.33-24.41L148.33-24.41Q149.21-24.41 149.82-24.11 150.43-23.8 150.82-23.3 151.21-22.8 151.38-22.14 151.55-21.48 151.55-20.8L151.55-20.8Q151.55-20.17 151.39-19.53 151.23-18.9 150.96-18.26L150.96-18.26ZM161.75-18.02L161.75-18.02Q161.75-17.53 162.07-17.11 162.39-16.7 162.94-16.32 163.49-15.94 164.21-15.58 164.93-15.21 165.71-14.84L165.71-14.84Q166.9-14.26 168.15-13.59 169.39-12.92 170.42-12.01 171.44-11.11 172.09-9.92 172.74-8.74 172.74-7.13L172.74-7.13Q172.74-5.66 172.31-4.54 171.88-3.42 171.18-2.6 170.47-1.78 169.53-1.25 168.59-0.71 167.55-0.39 166.51-0.07 165.44 0.06 164.36 0.2 163.41 0.2L163.41 0.2Q161.53 0.2 160.14-0.12 158.75-0.44 157.75-0.96 156.75-1.49 156.1-2.16 155.45-2.83 155.09-3.56 154.72-4.3 154.57-5.02 154.43-5.74 154.43-6.35L154.43-6.35Q154.43-7.81 155.25-8.5 156.06-9.18 157.75-9.18L157.75-9.18Q158.97-9.18 159.75-8.52 160.53-7.86 160.58-6.4L160.58-6.4Q160.61-5.91 160.86-5.62 161.12-5.32 161.52-5.14 161.92-4.96 162.41-4.9 162.9-4.83 163.36-4.83L163.36-4.83Q164.32-4.83 164.91-5.33 165.51-5.83 165.51-6.64L165.51-6.64Q165.51-7.32 165.11-7.92 164.71-8.52 164.05-9.03 163.39-9.55 162.55-10.02 161.7-10.5 160.82-10.99L160.82-10.99Q159.73-11.57 158.62-12.23 157.5-12.89 156.6-13.7 155.7-14.5 155.14-15.52 154.57-16.53 154.57-17.82L154.57-17.82Q154.57-19.73 155.2-21.01 155.82-22.29 157.02-23.08 158.21-23.88 159.93-24.22 161.65-24.56 163.85-24.61L163.85-24.61 164.24-24.61Q166.22-24.61 167.6-24.27 168.98-23.93 169.89-23.38 170.81-22.83 171.34-22.14 171.86-21.46 172.12-20.76 172.37-20.07 172.43-19.43 172.49-18.8 172.49-18.36L172.49-18.36Q172.49-17.63 172.19-17.15 171.88-16.67 171.38-16.39 170.88-16.11 170.25-16 169.61-15.89 168.93-15.87L168.93-15.87Q168.34-15.87 167.87-16.06 167.39-16.26 167.05-16.55 166.71-16.85 166.53-17.21 166.34-17.58 166.34-17.92L166.34-17.92Q166.29-18.85 165.6-19.34 164.9-19.82 163.9-19.82L163.9-19.82Q163.49-19.82 163.11-19.74 162.73-19.65 162.42-19.45 162.12-19.24 161.94-18.9 161.75-18.55 161.75-18.02Z"
                                                          opacity="1" transform="matrix(1,0,0,1,0,0)" fill="#f2bc02"
                                                          class="wordmark-text-0" data-fill-palette-color="quaternary"
                                                          id="text-0"></path>
                                                </svg>
                                            </g>
                                        </svg>
                                    </g>
                                </svg>
                            </g>
                        </svg>
                    </g>
                    <g></g>
                </svg>
            </g>
            <defs></defs>
        </svg>
        <rect width="395.52" height="109.04901672988018" fill="none" stroke="none" visibility="hidden"></rect>
    </g>
</svg>