<svg width="396" height="110" viewBox="0 0 396 110" fill="none" xmlns="http://www.w3.org/2000/svg">
<path d="M394.594 23.3891C392.735 12.0701 387.435 8.92306 387.435 8.92306C371.165 -2.73594 350.86 -0.222939 332.619 1.45206C300.414 1.52006 268.339 4.01006 236.208 5.34606C168.767 5.55006 100.749 2.19906 33.643 10.4621C27.339 12.9981 -6.53999 10.9601 1.12101 24.8381C3.12901 30.6111 10.456 37.0171 10.232 42.3151C11.236 43.2431 12.631 41.1151 13.226 42.4511C15.309 46.0501 18.711 44.3521 21.501 46.4801C17.614 52.1621 20.403 56.8941 23.062 61.8521C18.377 63.1421 12.371 62.5311 9.67501 66.8101C9.39601 69.9111 7.89001 69.3221 6.23501 69.1871C5.02601 69.0961 2.59001 69.4361 2.99901 70.4091C4.39401 73.7371 -1.59399 75.6611 2.16201 78.9211C-0.421987 82.4531 3.94801 85.5091 3.35301 89.3351C3.27801 90.1051 3.68701 90.7611 4.33801 90.9421C7.22001 91.9161 3.01801 93.8171 3.46401 95.8771C33.029 109.959 65.104 100.224 95.394 106.699C103.259 102.171 97.346 108.306 100.489 107.355C102.943 106.246 104.728 110.841 107.499 108.238C107.927 107.491 107.276 105.725 108.8 106.065C109.6 106.246 110.307 106.201 110.418 105.159C110.586 103.597 109.117 104.571 108.726 103.756C112.947 99.6351 111.906 109.438 115.866 109.03C115.68 107.831 114.528 106.11 116.889 106.336C119.232 104.616 119.306 103.19 121.389 107.061C121.463 107.898 121.835 108.487 122.43 108.895C128.938 104.684 135.409 110.389 142.233 108.487C146.417 106.404 150.433 109.619 154.672 108.827C156.16 108.193 157.666 107.061 159.098 108.962C176.632 109.37 195.319 107.672 211.943 109.03C256.364 106.495 303.835 110.072 350.674 106.721C361.719 105.431 373.192 103.597 383.958 102.126C383.958 102.126 392.679 98.0961 392.679 79.9851C392.679 61.8741 394.538 64.1381 394.817 49.7181C395.096 35.2971 396.398 34.7081 394.538 23.3891H394.594Z" fill="#0B545D"/>
</svg>
